# xmcd CD database file
#
# Track frame offsets:
#	150
#	14203
#	26560
#	42799
#	61710
#	74473
#	90268
#	107918
#	124260
#	139522
#	155047
#	168786
#	184476
#	199484
#	214285
#	230706
#	246309
#	259608
#	274184
#	286239
#
# Disc length: 4028 seconds
#
# Revision: 0
# Processed by: cddbd v1.5.2PL0 Copyright (c) Steve Scherf et al.
# Submitted via: CDex 1.70beta2
#
DISCID=300fba14
DTITLE=Tanya Tucker - Strong Enough To Bend/Tennessee Woman
DYEAR=2013
DGENRE=Country
TTITLE0=You're Not Alone
TTITLE1=Strong Enough To Bend
TTITLE2=As Long As I'm Dreamin'
TTITLE3=Lonesome Town
TTITLE4=Daddy And Home
TTITLE5=Highway Robbery
TTITLE6=Lonely At The Right Time
TTITLE7=Playing For Keeps
TTITLE8=Call On Me
TTITLE9=Back On My Feet
TTITLE10=Take Another Run
TTITLE11=Shotgun
TTITLE12=As Long As There's A Heartbeat
TTITLE13=Don't Go Out (Duet With T. Graham Brown)
TTITLE14=There's A Tennessee Woman/Ben's Song
TTITLE15=Goodby Baby
TTITLE16=It Won't Be Me
TTITLE17=Your Old Magic
TTITLE18=Walking Shoes
TTITLE19=Oh What It Did To Me
EXTD=YEAR: 2013
EXTT0=
EXTT1=
EXTT2=
EXTT3=
EXTT4=
EXTT5=
EXTT6=
EXTT7=
EXTT8=
EXTT9=
EXTT10=
EXTT11=
EXTT12=
EXTT13=
EXTT14=
EXTT15=
EXTT16=
EXTT17=
EXTT18=
EXTT19=
PLAYORDER=
